<?xml version="1.0" standalone="no"?>
<!DOCTYPE svg PUBLIC "-//W3C//DTD SVG 20010904//EN"
 "http://www.w3.org/TR/2001/REC-SVG-20010904/DTD/svg10.dtd">
<svg version="1.0" xmlns="http://www.w3.org/2000/svg"
 width="309.000000pt" height="309.000000pt" viewBox="0 0 309.000000 309.000000"
 preserveAspectRatio="xMidYMid meet">
<metadata>
Created by potrace 1.14, written by Peter Selinger 2001-2017
</metadata>
<g transform="translate(0.000000,309.000000) scale(0.100000,-0.100000)"
fill="#000000" stroke="none">
<path d="M1735 3023 c-70 -36 -131 -128 -151 -228 -5 -22 -9 -43 -10 -47 -1
-5 -2 -12 -3 -18 0 -5 -21 -15 -44 -21 -87 -21 -192 -127 -217 -217 -5 -20
-10 -61 -10 -89 l0 -53 -127 -61 c-425 -206 -516 -249 -520 -249 -3 0 -71 -33
-151 -72 -157 -79 -182 -102 -182 -168 0 -19 10 -51 21 -70 29 -47 32 -82 8
-100 -10 -8 -23 -29 -27 -45 -11 -36 -9 -1073 2 -1096 5 -13 0 -19 -23 -27
-16 -6 -32 -8 -35 -5 -8 9 -37 -18 -46 -43 -10 -24 11 -128 34 -172 25 -47 81
-101 137 -129 l54 -28 1165 0 1165 0 48 24 c99 49 169 150 180 258 6 51 -9 79
-47 90 -29 8 -31 11 -26 48 3 22 5 335 5 695 0 634 -1 656 -20 685 -21 33
-103 143 -120 161 -5 7 -28 35 -50 64 -22 29 -52 67 -66 84 -14 17 -36 47 -49
66 -13 19 -27 37 -30 40 -4 3 -31 37 -60 75 -229 299 -249 319 -342 340 -73
16 -130 4 -239 -49 l-92 -45 -42 30 c-23 16 -68 41 -101 54 -32 13 -59 30 -59
37 -3 63 54 173 101 199 22 11 25 18 20 48 -7 46 -16 52 -51 34z"/>
</g>
</svg>
